<?xml version="1.0" encoding="UTF-8" standalone="no"?>
<svg
   id="svg3389"
   version="1.1"
   viewBox="0 0 211.66666 42.333335"
   height="160"
   width="800"
   sodipodi:docname="banner_store.svg"
   inkscape:version="1.1.2 (b8e25be833, 2022-02-05)"
   xmlns:inkscape="http://www.inkscape.org/namespaces/inkscape"
   xmlns:sodipodi="http://sodipodi.sourceforge.net/DTD/sodipodi-0.dtd"
   xmlns:xlink="http://www.w3.org/1999/xlink"
   xmlns="http://www.w3.org/2000/svg"
   xmlns:svg="http://www.w3.org/2000/svg"
   xmlns:rdf="http://www.w3.org/1999/02/22-rdf-syntax-ns#"
   xmlns:cc="http://creativecommons.org/ns#"
   xmlns:dc="http://purl.org/dc/elements/1.1/">
  <sodipodi:namedview
     pagecolor="#ffffff"
     bordercolor="#666666"
     borderopacity="1"
     objecttolerance="10"
     gridtolerance="10"
     guidetolerance="10"
     inkscape:pageopacity="0"
     inkscape:pageshadow="2"
     inkscape:window-width="1920"
     inkscape:window-height="1137"
     id="namedview4624"
     showgrid="false"
     inkscape:zoom="2.2811738"
     inkscape:cx="138.74436"
     inkscape:cy="114.85315"
     inkscape:window-x="-8"
     inkscape:window-y="-8"
     inkscape:window-maximized="1"
     inkscape:current-layer="svg3389"
     inkscape:pagecheckerboard="0"
     inkscape:snap-page="true" />
  <defs
     id="defs3383">
    <linearGradient
       gradientUnits="userSpaceOnUse"
       y2="62.66238"
       x2="265.52728"
       y1="72.952255"
       x1="265.46716"
       id="linearGradient1695"
       xlink:href="#linearGradient2768"
       gradientTransform="translate(-148.24046,-46.92129)" />
    <linearGradient
       id="linearGradient2768">
      <stop
         id="stop2764"
         offset="0"
         style="stop-color:#414141;stop-opacity:1" />
      <stop
         id="stop2766"
         offset="1"
         style="stop-color:#767676;stop-opacity:1" />
    </linearGradient>
    <linearGradient
       gradientUnits="userSpaceOnUse"
       y2="62.66238"
       x2="265.52728"
       y1="72.952255"
       x1="265.46716"
       id="linearGradient3367"
       xlink:href="#linearGradient2768"
       gradientTransform="translate(-148.24047,-45.556943)" />
    <linearGradient
       gradientUnits="userSpaceOnUse"
       y2="53.806618"
       x2="193.7847"
       y1="78.689407"
       x1="172.91336"
       id="linearGradient3079"
       xlink:href="#linearGradient3077"
       gradientTransform="translate(-148.24046,-45.8297)" />
    <linearGradient
       id="linearGradient3077">
      <stop
         id="stop3073"
         offset="0"
         style="stop-color:#0048a5;stop-opacity:1" />
      <stop
         id="stop3075"
         offset="1"
         style="stop-color:#4b86d1;stop-opacity:1" />
    </linearGradient>
    <linearGradient
       inkscape:collect="always"
       xlink:href="#linearGradient2768"
       id="linearGradient1695-7"
       x1="265.46716"
       y1="72.952255"
       x2="265.52728"
       y2="62.66238"
       gradientUnits="userSpaceOnUse"
       gradientTransform="translate(-122.68223,-49.066323)" />
    <linearGradient
       inkscape:collect="always"
       xlink:href="#linearGradient2768"
       id="linearGradient925"
       gradientUnits="userSpaceOnUse"
       gradientTransform="translate(-122.68223,-49.066323)"
       x1="265.46716"
       y1="72.952255"
       x2="265.52728"
       y2="62.66238" />
    <linearGradient
       inkscape:collect="always"
       xlink:href="#linearGradient2768"
       id="linearGradient927"
       gradientUnits="userSpaceOnUse"
       gradientTransform="translate(-122.68223,-49.066323)"
       x1="265.46716"
       y1="72.952255"
       x2="265.52728"
       y2="62.66238" />
    <linearGradient
       inkscape:collect="always"
       xlink:href="#linearGradient2768"
       id="linearGradient929"
       gradientUnits="userSpaceOnUse"
       gradientTransform="translate(-122.68223,-49.066323)"
       x1="265.46716"
       y1="72.952255"
       x2="265.52728"
       y2="62.66238" />
    <linearGradient
       inkscape:collect="always"
       xlink:href="#linearGradient2768"
       id="linearGradient931"
       gradientUnits="userSpaceOnUse"
       gradientTransform="translate(-122.68223,-49.066323)"
       x1="265.46716"
       y1="72.952255"
       x2="265.52728"
       y2="62.66238" />
    <linearGradient
       inkscape:collect="always"
       xlink:href="#linearGradient2768"
       id="linearGradient933"
       gradientUnits="userSpaceOnUse"
       gradientTransform="translate(-122.68223,-49.066323)"
       x1="265.46716"
       y1="72.952255"
       x2="265.52728"
       y2="62.66238" />
    <linearGradient
       inkscape:collect="always"
       xlink:href="#linearGradient2768"
       id="linearGradient935"
       gradientUnits="userSpaceOnUse"
       gradientTransform="translate(-122.68223,-49.066323)"
       x1="265.46716"
       y1="72.952255"
       x2="265.52728"
       y2="62.66238" />
    <linearGradient
       inkscape:collect="always"
       xlink:href="#linearGradient2768"
       id="linearGradient937"
       gradientUnits="userSpaceOnUse"
       gradientTransform="translate(-122.68223,-49.066323)"
       x1="265.46716"
       y1="72.952255"
       x2="265.52728"
       y2="62.66238" />
    <linearGradient
       inkscape:collect="always"
       xlink:href="#linearGradient2768"
       id="linearGradient939"
       gradientUnits="userSpaceOnUse"
       gradientTransform="translate(-122.68223,-49.066323)"
       x1="265.46716"
       y1="72.952255"
       x2="265.52728"
       y2="62.66238" />
    <linearGradient
       inkscape:collect="always"
       xlink:href="#linearGradient2768"
       id="linearGradient941"
       gradientUnits="userSpaceOnUse"
       gradientTransform="translate(-122.68223,-49.066323)"
       x1="265.46716"
       y1="72.952255"
       x2="265.52728"
       y2="62.66238" />
    <linearGradient
       inkscape:collect="always"
       xlink:href="#linearGradient2768"
       id="linearGradient943"
       gradientUnits="userSpaceOnUse"
       gradientTransform="translate(-122.68223,-49.066323)"
       x1="265.46716"
       y1="72.952255"
       x2="265.52728"
       y2="62.66238" />
    <linearGradient
       inkscape:collect="always"
       xlink:href="#linearGradient2768"
       id="linearGradient945"
       gradientUnits="userSpaceOnUse"
       gradientTransform="translate(-122.68223,-49.066323)"
       x1="265.46716"
       y1="72.952255"
       x2="265.52728"
       y2="62.66238" />
    <linearGradient
       inkscape:collect="always"
       xlink:href="#linearGradient2768"
       id="linearGradient947"
       gradientUnits="userSpaceOnUse"
       gradientTransform="translate(-122.68223,-49.066323)"
       x1="265.46716"
       y1="72.952255"
       x2="265.52728"
       y2="62.66238" />
    <linearGradient
       inkscape:collect="always"
       xlink:href="#linearGradient2768"
       id="linearGradient949"
       gradientUnits="userSpaceOnUse"
       gradientTransform="translate(-122.68223,-49.066323)"
       x1="265.46716"
       y1="72.952255"
       x2="265.52728"
       y2="62.66238" />
    <linearGradient
       inkscape:collect="always"
       xlink:href="#linearGradient2768"
       id="linearGradient951"
       gradientUnits="userSpaceOnUse"
       gradientTransform="translate(-122.68223,-49.066323)"
       x1="265.46716"
       y1="72.952255"
       x2="265.52728"
       y2="62.66238" />
    <linearGradient
       inkscape:collect="always"
       xlink:href="#linearGradient2768"
       id="linearGradient953"
       gradientUnits="userSpaceOnUse"
       gradientTransform="translate(-122.68223,-49.066323)"
       x1="265.46716"
       y1="72.952255"
       x2="265.52728"
       y2="62.66238" />
    <linearGradient
       inkscape:collect="always"
       xlink:href="#linearGradient2768"
       id="linearGradient955"
       gradientUnits="userSpaceOnUse"
       gradientTransform="translate(-122.68223,-49.066323)"
       x1="265.46716"
       y1="72.952255"
       x2="265.52728"
       y2="62.66238" />
    <linearGradient
       inkscape:collect="always"
       xlink:href="#linearGradient2768"
       id="linearGradient957"
       gradientUnits="userSpaceOnUse"
       gradientTransform="translate(-122.68223,-49.066323)"
       x1="265.46716"
       y1="72.952255"
       x2="265.52728"
       y2="62.66238" />
    <linearGradient
       inkscape:collect="always"
       xlink:href="#linearGradient3077"
       id="linearGradient880"
       gradientUnits="userSpaceOnUse"
       gradientTransform="translate(-148.24046,-45.8297)"
       x1="172.91336"
       y1="78.689407"
       x2="193.7847"
       y2="53.806618" />
  </defs>
  <metadata
     id="metadata3386">
    <rdf:RDF>
      <cc:Work
         rdf:about="">
        <dc:format>image/svg+xml</dc:format>
        <dc:type
           rdf:resource="http://purl.org/dc/dcmitype/StillImage" />
      </cc:Work>
    </rdf:RDF>
  </metadata>
  <path
     inkscape:connector-curvature="0"
     style="display:inline;fill:url(#linearGradient880);fill-opacity:1;stroke:none;stroke-width:0.792418;stroke-miterlimit:4;stroke-dasharray:none;stroke-opacity:1"
     d="m 33.579025,7.46244 c -1.444202,-0.006 -2.8927,0.954 -6.250432,2.87281 -6.715469,3.83763 -6.251139,3.04159 -6.285399,10.77616 -0.0342,7.73458 -0.49148,6.93446 6.189731,10.83141 6.681208,3.89695 5.759659,3.89286 12.475109,0.0552 6.71548,-3.83762 6.251142,-3.04159 6.2854,-10.77616 0.0342,-7.73458 0.491479,-6.93445 -6.189729,-10.83141 C 36.463094,8.44198 35.023213,7.46879 33.579025,7.4624 Z m -0.0114,2.46174 c 1.45604,0.006 2.909041,0.70166 5.288781,2.08969 4.759459,2.77605 5.281721,3.6899 5.257299,9.19974 -0.02439,5.50983 -0.554698,6.419 -5.338558,9.15279 -4.783852,2.73378 -5.836402,2.7291 -10.595872,-0.0469 -4.75945,-2.77605 -5.28169,-3.6899 -5.2573,-9.19974 0.0245,-5.50984 0.5547,-6.41901 5.338569,-9.15279 2.391931,-1.3669 3.851042,-2.04919 5.307081,-2.04274 z m -0.1334,1.3965 c -2.330011,0.0296 -4.91517,2.65026 -6.25825,5.24472 -1.36441,2.63563 -2.145089,5.1317 -1.82359,8.33696 0.140001,1.39549 1.468821,3.17665 3.059652,4.06963 -0.338111,-2.76779 -0.147672,-5.47572 0.467008,-7.72353 0.61469,-2.24782 2.44942,-5.89506 4.61577,-5.89016 2.166371,0.005 4.00105,3.64903 4.61573,5.89685 0.614662,2.24781 0.805119,4.95574 0.467,7.72353 1.590839,-0.89298 2.919669,-2.6742 3.05966,-4.06969 0.321501,-3.20525 -0.45907,-5.70121 -1.823489,-8.33685 -1.338422,-2.58545 -3.910381,-5.19672 -6.268731,-5.25093 -0.0369,-8.2e-4 -0.0738,-9.8e-4 -0.11071,-5.3e-4 z m 0.113911,7.69891 a 2.1388648,2.1388648 0 0 0 -1.02798,0.25165 2.1388648,2.1388648 0 0 0 -0.88029,2.8939 2.1388648,2.1388648 0 0 0 2.893891,0.88029 2.1388648,2.1388648 0 0 0 0.880298,-2.8939 2.1388648,2.1388648 0 0 0 -1.865919,-1.13194 z"
     id="path1091" />
  <g
     aria-label="Verge3D Asset Store"
     id="text13242-9"
     style="font-size:10.5833px;line-height:1.25;font-family:'Days One';-inkscape-font-specification:'Days One';letter-spacing:0px;word-spacing:0px;display:inline;fill:url(#linearGradient1695-7);stroke-width:0.264583"
     transform="translate(-15.880567,2.1450277)">
    <path
       d="m 78.550972,14.846198 q -0.03101,-0.06201 -0.03101,-0.134358 0,-0.07751 0.09302,-0.186035 0.09819,-0.113687 0.273884,-0.113687 h 1.131711 q 0.403074,0 0.614947,0.490924 l 1.999872,4.454495 1.999871,-4.454495 q 0.211873,-0.485757 0.614948,-0.490924 h 1.13171 q 0.180867,0 0.273884,0.113687 0.09302,0.108521 0.09302,0.186035 0,0.07235 -0.02584,0.134358 l -2.976553,6.449199 q -0.242878,0.527098 -0.73897,0.527098 h -0.744138 q -0.496093,0 -0.738971,-0.527098 z"
       id="path872"
       style="fill:url(#linearGradient925)" />
    <path
       d="M 87.604653,21.171374 Q 86.808838,20.4169 86.808838,19.00097 q 0,-1.421097 0.800983,-2.180738 0.800982,-0.764809 2.222079,-0.764809 1.421098,0 2.216912,0.744138 0.795815,0.738971 0.795815,2.123895 v 0.294555 q 0,0.139526 -0.09302,0.232543 -0.08785,0.08785 -0.227375,0.08785 h -3.891223 q 0.05168,0.635619 0.361734,0.925006 0.315225,0.289387 1.002519,0.289387 0.687295,0 0.940508,-0.310058 0.253214,-0.310057 0.625283,-0.315225 h 0.769976 q 0.139526,0 0.227376,0.09302 0.09302,0.08785 0.09302,0.227376 0,1.483109 -2.826691,1.477941 -1.426265,0 -2.22208,-0.754473 z m 1.018022,-2.72334 h 2.402947 q -0.05168,-1.21956 -1.198889,-1.21956 -1.142046,0 -1.204058,1.21956 z"
       id="path874"
       style="fill:url(#linearGradient927)" />
    <path
       d="m 97.712531,17.471353 -0.795814,-0.03101 q -0.69763,0 -1.333248,0.764809 v 3.302113 q 0,0.139526 -0.09302,0.227376 -0.08785,0.08785 -0.222208,0.08785 h -1.157549 q -0.139526,0 -0.227375,-0.08785 -0.08785,-0.08785 -0.08785,-0.227376 v -5.028101 q 0,-0.139526 0.08785,-0.227375 0.09302,-0.09302 0.227375,-0.09302 h 1.157549 q 0.139526,0 0.227375,0.09302 0.08785,0.08785 0.08785,0.227375 v 0.325561 q 0.527098,-0.382404 1.012855,-0.563271 0.490924,-0.186035 1.281571,-0.186035 0.139526,0 0.227376,0.09302 0.09302,0.08785 0.09302,0.222208 v 0.78548 q 0,0.139525 -0.09302,0.227375 -0.08785,0.08785 -0.227376,0.08785 z"
       id="path876"
       style="fill:url(#linearGradient929)" />
    <path
       d="m 101.23168,21.388414 q -1.17305,0 -1.896515,-0.707965 -0.7183,-0.707965 -0.7183,-1.963698 0,-1.255733 0.821652,-1.958531 0.821653,-0.702797 2.356443,-0.702797 0.7493,0 1.55545,0.170532 0.80615,0.165364 1.21439,0.408242 v 4.785223 q 0,1.15238 -0.75964,1.700149 -0.75964,0.552936 -2.13423,0.552936 -1.36942,0 -2.113557,-0.346231 -0.738971,-0.341063 -0.738971,-1.13171 0,-0.139526 0.08785,-0.232544 0.09302,-0.08785 0.232543,-0.08785 h 0.769976 q 0.372069,0 0.594279,0.273884 0.28422,0.351399 1.00769,0.351399 0.72863,0 0.99735,-0.237711 0.26871,-0.237711 0.26871,-0.842323 V 21.17654 q -0.82682,0.211873 -1.54512,0.211873 z m 0.45476,-4.082425 q -1.22473,-0.0052 -1.22473,1.415929 0,1.41593 1.19372,1.41593 0.49609,0 1.12137,-0.155029 v -2.563143 q -0.44441,-0.118855 -1.09036,-0.113687 z"
       id="path878"
       style="fill:url(#linearGradient931)" />
    <path
       d="m 106.31146,21.171374 q -0.79581,-0.754474 -0.79581,-2.170404 0,-1.421097 0.80098,-2.180738 0.80098,-0.764809 2.22208,-0.764809 1.4211,0 2.21691,0.744138 0.79582,0.738971 0.79582,2.123895 v 0.294555 q 0,0.139526 -0.093,0.232543 -0.0879,0.08785 -0.22738,0.08785 h -3.89122 q 0.0517,0.635619 0.36173,0.925006 0.31523,0.289387 1.00252,0.289387 0.6873,0 0.94051,-0.310058 0.25322,-0.310057 0.62528,-0.315225 h 0.76998 q 0.13953,0 0.22738,0.09302 0.093,0.08785 0.093,0.227376 0,1.483109 -2.82669,1.477941 -1.42626,0 -2.22208,-0.754473 z m 1.01802,-2.72334 h 2.40295 q -0.0517,-1.21956 -1.19889,-1.21956 -1.14204,0 -1.20406,1.21956 z"
       id="path880"
       style="fill:url(#linearGradient933)" />
    <path
       d="m 112.13021,19.801952 q 0,-0.310057 0.18087,-0.439248 0.18086,-0.134358 0.3514,-0.134358 h 0.60978 q 0.48058,0 0.75447,0.589109 0.27388,0.58911 1.2609,0.58911 h 0.73897 q 0.63562,0 0.93017,-0.180867 0.29456,-0.180867 0.29456,-0.614948 0,-0.43408 -0.29456,-0.614947 -0.29455,-0.180867 -0.93017,-0.180867 h -0.93017 q -0.20154,0 -0.34623,-0.139526 -0.1447,-0.144694 -0.1447,-0.346231 v -0.423746 q 0,-0.191202 0.13953,-0.335895 0.13953,-0.149862 0.33073,-0.149862 h 0.75964 q 0.68729,0 0.99735,-0.180866 0.31523,-0.180867 0.31523,-0.614948 0,-0.434081 -0.31523,-0.60978 -0.31006,-0.180867 -0.99735,-0.180867 h -0.38241 q -0.99218,0 -1.31257,0.635618 -0.23255,0.485757 -0.69763,0.485757 h -0.61495 q -0.24805,0 -0.38757,-0.180867 -0.13953,-0.180867 -0.13953,-0.392739 0,-0.58911 0.44959,-1.059364 0.44958,-0.475422 1.12137,-0.713132 0.67179,-0.237711 1.40043,-0.237711 h 0.71313 q 3.11091,0 3.11091,2.26342 0,0.945676 -0.70796,1.483109 0.81131,0.511595 0.81131,1.493444 0,1.193722 -0.76481,1.725988 -0.75964,0.527098 -2.22724,0.527098 h -1.10071 q -1.15755,0 -2.06705,-0.568439 -0.9095,-0.573607 -0.9095,-1.493445 z"
       id="path882"
       style="fill:url(#linearGradient935)" />
    <path
       d="m 120.25889,21.347073 v -6.433695 q 0,-0.211873 0.14469,-0.356567 0.14469,-0.144693 0.34623,-0.144693 h 2.88871 q 2.24275,0 3.26077,0.899167 1.02319,0.893999 1.02319,2.811189 0,1.912022 -1.02319,2.806021 -1.01802,0.894 -3.26077,0.894 h -2.88871 q -0.20154,0 -0.34623,-0.134359 -0.14469,-0.139526 -0.14469,-0.341063 z m 1.94819,-0.987017 h 1.37459 q 1.39009,0 1.89135,-0.506427 0.50126,-0.506428 0.50126,-1.731155 0,-1.229895 -0.50126,-1.736323 -0.50126,-0.511595 -1.89135,-0.511595 h -1.37459 z"
       id="path884"
       style="fill:url(#linearGradient937)" />
    <path
       d="m 132.07725,21.347073 1.29707,-4.919581 q 0.5271,-2.010207 3.43131,-2.015374 h 2.78535 q 0.1912,0 0.31522,0.144693 0.12919,0.144694 0.12919,0.335896 v 6.454366 q 0,0.201537 -0.14469,0.341063 -0.14469,0.134359 -0.34623,0.134359 h -0.97151 q -0.21188,0 -0.3514,-0.134359 -0.13436,-0.139526 -0.13436,-0.351398 v -1.302242 h -3.67418 l -0.34623,1.302242 q -0.0517,0.211872 -0.23255,0.351398 -0.18086,0.134359 -0.3824,0.134359 h -1.01802 q -0.20154,0 -0.28939,-0.113688 -0.0879,-0.118856 -0.0879,-0.206705 0.005,-0.08785 0.0207,-0.155029 z m 2.71817,-2.775016 h 3.29178 v -2.697501 h -1.47277 q -0.4961,0 -0.86817,0.28422 -0.3669,0.279051 -0.49609,0.754473 z"
       id="path886"
       style="fill:url(#linearGradient939)" />
    <path
       d="m 141.08959,17.724566 q 0,-1.669143 2.69233,-1.669143 2.83186,0 2.83186,1.483109 0,0.134358 -0.0879,0.227375 -0.0878,0.08785 -0.22737,0.08785 h -0.76998 q -0.37207,0 -0.62528,-0.310057 -0.25322,-0.315226 -0.99735,-0.315226 -1.02319,0 -1.02319,0.496092 0,0.232544 0.3979,0.387572 0.40308,0.155029 0.97668,0.273885 0.57878,0.113687 1.15239,0.294554 0.5736,0.180867 0.97151,0.578775 0.40307,0.392739 0.40307,0.997352 0,1.669143 -2.84219,1.669143 -2.8422,0 -2.8422,-1.477941 0,-0.139526 0.0879,-0.227376 0.093,-0.09302 0.23255,-0.09302 h 0.76997 q 0.37207,0 0.62529,0.315225 0.25321,0.310058 0.99735,0.310058 1.18339,0 1.18339,-0.496092 0,-0.232544 -0.40308,-0.387572 -0.39791,-0.155029 -0.97668,-0.273885 -0.57878,-0.124023 -1.15238,-0.299722 -0.56844,-0.180867 -0.97152,-0.578774 -0.40307,-0.397907 -0.40307,-0.992185 z"
       id="path888"
       style="fill:url(#linearGradient941)" />
    <path
       d="m 147.41993,17.724566 q 0,-1.669143 2.69233,-1.669143 2.83186,0 2.83186,1.483109 0,0.134358 -0.0879,0.227375 -0.0879,0.08785 -0.22737,0.08785 h -0.76998 q -0.37207,0 -0.62528,-0.310057 -0.25321,-0.315226 -0.99735,-0.315226 -1.02319,0 -1.02319,0.496092 0,0.232544 0.3979,0.387572 0.40308,0.155029 0.97669,0.273885 0.57877,0.113687 1.15238,0.294554 0.5736,0.180867 0.97151,0.578775 0.40308,0.392739 0.40308,0.997352 0,1.669143 -2.8422,1.669143 -2.84219,0 -2.84219,-1.477941 0,-0.139526 0.0879,-0.227376 0.093,-0.09302 0.23254,-0.09302 h 0.76998 q 0.37206,0 0.62528,0.315225 0.25321,0.310058 0.99735,0.310058 1.18339,0 1.18339,-0.496092 0,-0.232544 -0.40308,-0.387572 -0.39791,-0.155029 -0.97668,-0.273885 -0.57877,-0.124023 -1.15238,-0.299722 -0.56844,-0.180867 -0.97151,-0.578774 -0.40308,-0.397907 -0.40308,-0.992185 z"
       id="path890"
       style="fill:url(#linearGradient943)" />
    <path
       d="m 154.54609,21.171374 q -0.79581,-0.754474 -0.79581,-2.170404 0,-1.421097 0.80098,-2.180738 0.80098,-0.764809 2.22208,-0.764809 1.4211,0 2.21691,0.744138 0.79581,0.738971 0.79581,2.123895 v 0.294555 q 0,0.139526 -0.093,0.232543 -0.0879,0.08785 -0.22738,0.08785 h -3.89122 q 0.0517,0.635619 0.36173,0.925006 0.31523,0.289387 1.00252,0.289387 0.6873,0 0.94051,-0.310058 0.25321,-0.310057 0.62528,-0.315225 h 0.76998 q 0.13953,0 0.22737,0.09302 0.093,0.08785 0.093,0.227376 0,1.483109 -2.82669,1.477941 -1.42626,0 -2.22208,-0.754473 z m 1.01802,-2.72334 h 2.40295 q -0.0517,-1.21956 -1.19889,-1.21956 -1.14205,0 -1.20406,1.21956 z"
       id="path892"
       style="fill:url(#linearGradient945)" />
    <path
       d="m 163.43441,20.701119 0.70796,-0.06201 h 0.1912 q 0.13953,0 0.22738,0.08785 0.093,0.08785 0.093,0.227375 v 0.552936 q 0,0.113688 -0.093,0.206705 -0.0879,0.08785 -0.22738,0.108521 -0.52709,0.103352 -1.37458,0.103352 -2.22208,0 -2.22208,-2.325432 v -4.867904 q 0,-0.139526 0.0879,-0.227376 0.093,-0.09302 0.22737,-0.09302 h 1.15755 q 0.13436,0 0.22221,0.09302 0.093,0.08785 0.093,0.227376 v 1.725987 h 1.44177 q 0.13436,0 0.22221,0.08785 0.093,0.08785 0.093,0.227375 v 0.614948 q 0,0.139526 -0.093,0.227375 -0.0879,0.08785 -0.22221,0.08785 h -1.44177 v 1.896519 q 0,0.527098 0.24805,0.816485 0.24805,0.284219 0.66146,0.284219 z"
       id="path894"
       style="fill:url(#linearGradient947)" />
    <path
       d="m 168.88625,19.925975 q 0,-0.304889 0.18087,-0.43408 0.18087,-0.134358 0.3514,-0.134358 h 0.61495 q 0.46508,0 0.70796,0.506427 0.24288,0.506427 1.09037,0.506427 l 1.80867,0.03617 q 0.9095,0 0.9095,-0.594277 0,-0.449584 -1.11104,-0.707965 -0.49609,-0.118856 -1.09553,-0.232543 -0.59945,-0.118856 -1.19372,-0.294555 -0.58911,-0.175699 -1.08521,-0.41341 -0.49609,-0.237711 -0.80615,-0.651121 -0.30489,-0.418578 -0.30489,-0.981849 0,-1.038693 0.73897,-1.596797 0.73898,-0.563271 2.54248,-0.563271 l 1.31257,0.03101 q 1.05937,0 1.90686,0.547769 0.85266,0.542601 0.85266,1.359086 0,0.30489 -0.18087,0.439248 -0.18087,0.134358 -0.34623,0.134358 h -0.61495 q -0.46508,0 -0.70796,-0.506427 -0.24288,-0.511595 -1.09037,-0.511595 l -1.55546,-0.03101 q -0.9095,0 -0.9095,0.594277 0,0.325561 0.57361,0.532266 0.57877,0.206705 1.39526,0.366901 0.82165,0.155029 1.64847,0.377237 0.82682,0.222208 1.40042,0.733803 0.57878,0.506427 0.57878,1.266069 0,1.038693 -0.74414,1.601964 -0.73897,0.558104 -2.5373,0.558104 l -1.56579,-0.03101 q -1.05937,0 -1.91203,-0.542601 -0.85266,-0.547768 -0.85266,-1.364254 z"
       id="path896"
       style="fill:url(#linearGradient949)" />
    <path
       d="m 180.14651,20.701119 0.70797,-0.06201 h 0.1912 q 0.13952,0 0.22737,0.08785 0.093,0.08785 0.093,0.227375 v 0.552936 q 0,0.113688 -0.093,0.206705 -0.0879,0.08785 -0.22737,0.108521 -0.5271,0.103352 -1.37459,0.103352 -2.22208,0 -2.22208,-2.325432 v -4.867904 q 0,-0.139526 0.0879,-0.227376 0.093,-0.09302 0.22738,-0.09302 h 1.15754 q 0.13436,0 0.22221,0.09302 0.093,0.08785 0.093,0.227376 v 1.725987 h 1.44177 q 0.13436,0 0.22221,0.08785 0.093,0.08785 0.093,0.227375 v 0.614948 q 0,0.139526 -0.093,0.227375 -0.0879,0.08785 -0.22221,0.08785 h -1.44177 v 1.896519 q 0,0.527098 0.24805,0.816485 0.24804,0.284219 0.66145,0.284219 z"
       id="path898"
       style="fill:url(#linearGradient951)" />
    <path
       d="m 182.64764,21.181709 q -0.80615,-0.744138 -0.80615,-2.191074 0,-1.452103 0.80615,-2.191074 0.80615,-0.744138 2.3151,-0.744138 1.51411,0 2.32026,0.744138 0.80615,0.738971 0.80615,2.191074 0,1.446936 -0.80615,2.191074 -0.80615,0.744138 -2.32026,0.744138 -1.50895,0 -2.3151,-0.744138 z m 1.30741,-3.534657 q -0.32039,0.418578 -0.32039,1.338415 0,0.919838 0.32039,1.343583 0.3204,0.423746 1.00769,0.423746 0.69246,0 1.01285,-0.423746 0.32557,-0.423745 0.32557,-1.343583 0,-0.919837 -0.32557,-1.338415 -0.32039,-0.418578 -1.01285,-0.418578 -0.68729,0 -1.00769,0.418578 z"
       id="path900"
       style="fill:url(#linearGradient953)" />
    <path
       d="m 192.95706,17.471353 -0.79581,-0.03101 q -0.69763,0 -1.33325,0.764809 v 3.302113 q 0,0.139526 -0.093,0.227376 -0.0879,0.08785 -0.22221,0.08785 h -1.15755 q -0.13952,0 -0.22737,-0.08785 -0.0879,-0.08785 -0.0879,-0.227376 v -5.028101 q 0,-0.139526 0.0879,-0.227375 0.093,-0.09302 0.22737,-0.09302 h 1.15755 q 0.13953,0 0.22738,0.09302 0.0879,0.08785 0.0879,0.227375 v 0.325561 q 0.5271,-0.382404 1.01285,-0.563271 0.49093,-0.186035 1.28157,-0.186035 0.13953,0 0.22738,0.09302 0.093,0.08785 0.093,0.222208 v 0.78548 q 0,0.139525 -0.093,0.227375 -0.0878,0.08785 -0.22738,0.08785 z"
       id="path902"
       style="fill:url(#linearGradient955)" />
    <path
       d="m 194.60553,21.171374 q -0.79581,-0.754474 -0.79581,-2.170404 0,-1.421097 0.80098,-2.180738 0.80098,-0.764809 2.22208,-0.764809 1.4211,0 2.21691,0.744138 0.79581,0.738971 0.79581,2.123895 v 0.294555 q 0,0.139526 -0.093,0.232543 -0.0879,0.08785 -0.22738,0.08785 h -3.89122 q 0.0517,0.635619 0.36173,0.925006 0.31523,0.289387 1.00252,0.289387 0.6873,0 0.94051,-0.310058 0.25321,-0.310057 0.62528,-0.315225 h 0.76998 q 0.13953,0 0.22738,0.09302 0.093,0.08785 0.093,0.227376 0,1.483109 -2.82669,1.477941 -1.42626,0 -2.22208,-0.754473 z m 1.01802,-2.72334 h 2.40295 q -0.0517,-1.21956 -1.19889,-1.21956 -1.14204,0 -1.20406,1.21956 z"
       id="path904"
       style="fill:url(#linearGradient957)" />
  </g>
</svg>
