<?xml version="1.0" encoding="UTF-8" standalone="no"?>
<svg
   id="svg3389"
   version="1.1"
   viewBox="0 0 211.66666 42.333335"
   height="160"
   width="800"
   sodipodi:docname="banner_network.svg"
   inkscape:version="1.1.2 (b8e25be833, 2022-02-05)"
   xmlns:inkscape="http://www.inkscape.org/namespaces/inkscape"
   xmlns:sodipodi="http://sodipodi.sourceforge.net/DTD/sodipodi-0.dtd"
   xmlns:xlink="http://www.w3.org/1999/xlink"
   xmlns="http://www.w3.org/2000/svg"
   xmlns:svg="http://www.w3.org/2000/svg"
   xmlns:rdf="http://www.w3.org/1999/02/22-rdf-syntax-ns#"
   xmlns:cc="http://creativecommons.org/ns#"
   xmlns:dc="http://purl.org/dc/elements/1.1/">
  <sodipodi:namedview
     pagecolor="#ffffff"
     bordercolor="#666666"
     borderopacity="1"
     objecttolerance="10"
     gridtolerance="10"
     guidetolerance="10"
     inkscape:pageopacity="0"
     inkscape:pageshadow="2"
     inkscape:window-width="1920"
     inkscape:window-height="1137"
     id="namedview4624"
     showgrid="false"
     inkscape:zoom="1.6130335"
     inkscape:cx="349.96174"
     inkscape:cy="107.25134"
     inkscape:window-x="-8"
     inkscape:window-y="-8"
     inkscape:window-maximized="1"
     inkscape:current-layer="svg3389"
     inkscape:pagecheckerboard="0" />
  <defs
     id="defs3383">
    <linearGradient
       gradientUnits="userSpaceOnUse"
       y2="62.66238"
       x2="265.52728"
       y1="72.952255"
       x1="265.46716"
       id="linearGradient1695"
       xlink:href="#linearGradient2768"
       gradientTransform="translate(-148.24046,-46.92129)" />
    <linearGradient
       id="linearGradient2768">
      <stop
         id="stop2764"
         offset="0"
         style="stop-color:#414141;stop-opacity:1" />
      <stop
         id="stop2766"
         offset="1"
         style="stop-color:#767676;stop-opacity:1" />
    </linearGradient>
    <linearGradient
       gradientUnits="userSpaceOnUse"
       y2="62.66238"
       x2="265.52728"
       y1="72.952255"
       x1="265.46716"
       id="linearGradient3367"
       xlink:href="#linearGradient2768"
       gradientTransform="translate(-156.23065,-85.14692)" />
    <linearGradient
       gradientUnits="userSpaceOnUse"
       y2="53.806618"
       x2="193.7847"
       y1="78.689407"
       x1="172.91336"
       id="linearGradient3079"
       xlink:href="#linearGradient3077"
       gradientTransform="translate(-148.24046,-45.8297)" />
    <linearGradient
       id="linearGradient3077">
      <stop
         id="stop3073"
         offset="0"
         style="stop-color:#0048a5;stop-opacity:1" />
      <stop
         id="stop3075"
         offset="1"
         style="stop-color:#4b86d1;stop-opacity:1" />
    </linearGradient>
    <linearGradient
       inkscape:collect="always"
       xlink:href="#linearGradient2768"
       id="linearGradient4483"
       gradientUnits="userSpaceOnUse"
       gradientTransform="translate(-156.23065,-85.14692)"
       x1="265.46716"
       y1="72.952255"
       x2="265.52728"
       y2="62.66238" />
    <linearGradient
       inkscape:collect="always"
       xlink:href="#linearGradient2768"
       id="linearGradient4485"
       gradientUnits="userSpaceOnUse"
       gradientTransform="translate(-156.23065,-85.14692)"
       x1="265.46716"
       y1="72.952255"
       x2="265.52728"
       y2="62.66238" />
    <linearGradient
       inkscape:collect="always"
       xlink:href="#linearGradient2768"
       id="linearGradient4487"
       gradientUnits="userSpaceOnUse"
       gradientTransform="translate(-156.23065,-85.14692)"
       x1="265.46716"
       y1="72.952255"
       x2="265.52728"
       y2="62.66238" />
    <linearGradient
       inkscape:collect="always"
       xlink:href="#linearGradient2768"
       id="linearGradient4489"
       gradientUnits="userSpaceOnUse"
       gradientTransform="translate(-156.23065,-85.14692)"
       x1="265.46716"
       y1="72.952255"
       x2="265.52728"
       y2="62.66238" />
    <linearGradient
       inkscape:collect="always"
       xlink:href="#linearGradient2768"
       id="linearGradient4491"
       gradientUnits="userSpaceOnUse"
       gradientTransform="translate(-156.23065,-85.14692)"
       x1="265.46716"
       y1="72.952255"
       x2="265.52728"
       y2="62.66238" />
    <linearGradient
       inkscape:collect="always"
       xlink:href="#linearGradient2768"
       id="linearGradient4493"
       gradientUnits="userSpaceOnUse"
       gradientTransform="translate(-156.23065,-85.14692)"
       x1="265.46716"
       y1="72.952255"
       x2="265.52728"
       y2="62.66238" />
    <linearGradient
       inkscape:collect="always"
       xlink:href="#linearGradient2768"
       id="linearGradient4495"
       gradientUnits="userSpaceOnUse"
       gradientTransform="translate(-156.23065,-85.14692)"
       x1="265.46716"
       y1="72.952255"
       x2="265.52728"
       y2="62.66238" />
    <linearGradient
       inkscape:collect="always"
       xlink:href="#linearGradient2768"
       id="linearGradient4497"
       gradientUnits="userSpaceOnUse"
       gradientTransform="translate(-156.23065,-85.14692)"
       x1="265.46716"
       y1="72.952255"
       x2="265.52728"
       y2="62.66238" />
    <linearGradient
       inkscape:collect="always"
       xlink:href="#linearGradient2768"
       id="linearGradient4499"
       gradientUnits="userSpaceOnUse"
       gradientTransform="translate(-156.23065,-85.14692)"
       x1="265.46716"
       y1="72.952255"
       x2="265.52728"
       y2="62.66238" />
    <linearGradient
       inkscape:collect="always"
       xlink:href="#linearGradient2768"
       id="linearGradient4501"
       gradientUnits="userSpaceOnUse"
       gradientTransform="translate(-156.23065,-85.14692)"
       x1="265.46716"
       y1="72.952255"
       x2="265.52728"
       y2="62.66238" />
    <linearGradient
       inkscape:collect="always"
       xlink:href="#linearGradient2768"
       id="linearGradient4503"
       gradientUnits="userSpaceOnUse"
       gradientTransform="translate(-156.23065,-85.14692)"
       x1="265.46716"
       y1="72.952255"
       x2="265.52728"
       y2="62.66238" />
    <linearGradient
       inkscape:collect="always"
       xlink:href="#linearGradient2768"
       id="linearGradient4505"
       gradientUnits="userSpaceOnUse"
       gradientTransform="translate(-156.23065,-85.14692)"
       x1="265.46716"
       y1="72.952255"
       x2="265.52728"
       y2="62.66238" />
    <linearGradient
       inkscape:collect="always"
       xlink:href="#linearGradient2768"
       id="linearGradient4507"
       gradientUnits="userSpaceOnUse"
       gradientTransform="translate(-156.23065,-85.14692)"
       x1="265.46716"
       y1="72.952255"
       x2="265.52728"
       y2="62.66238" />
    <linearGradient
       inkscape:collect="always"
       xlink:href="#linearGradient2768"
       id="linearGradient4509"
       gradientUnits="userSpaceOnUse"
       gradientTransform="translate(-156.23065,-85.14692)"
       x1="265.46716"
       y1="72.952255"
       x2="265.52728"
       y2="62.66238" />
  </defs>
  <metadata
     id="metadata3386">
    <rdf:RDF>
      <cc:Work
         rdf:about="">
        <dc:format>image/svg+xml</dc:format>
        <dc:type
           rdf:resource="http://purl.org/dc/dcmitype/StillImage" />
      </cc:Work>
    </rdf:RDF>
  </metadata>
  <path
     inkscape:connector-curvature="0"
     style="display:inline;fill:url(#linearGradient3079);fill-opacity:1;stroke:none;stroke-width:0.792418;stroke-miterlimit:4;stroke-dasharray:none;stroke-opacity:1"
     d="m 33.579025,7.46244 c -1.444202,-0.006 -2.8927,0.954 -6.250432,2.87281 -6.715469,3.83763 -6.251139,3.04159 -6.285399,10.77616 -0.0342,7.73458 -0.49148,6.93446 6.189731,10.83141 6.681208,3.89695 5.759659,3.89286 12.475109,0.0552 6.71548,-3.83762 6.251142,-3.04159 6.2854,-10.77616 0.0342,-7.73458 0.491479,-6.93445 -6.189729,-10.83141 C 36.463094,8.44198 35.023213,7.46879 33.579025,7.4624 Z m -0.0114,2.46174 c 1.45604,0.006 2.909041,0.70166 5.288781,2.08969 4.759459,2.77605 5.281721,3.6899 5.257299,9.19974 -0.02439,5.50983 -0.554698,6.419 -5.338558,9.15279 -4.783852,2.73378 -5.836402,2.7291 -10.595872,-0.0469 -4.75945,-2.77605 -5.28169,-3.6899 -5.2573,-9.19974 0.0245,-5.50984 0.5547,-6.41901 5.338569,-9.15279 2.391931,-1.3669 3.851042,-2.04919 5.307081,-2.04274 z m -0.1334,1.3965 c -2.330011,0.0296 -4.91517,2.65026 -6.25825,5.24472 -1.36441,2.63563 -2.145089,5.1317 -1.82359,8.33696 0.140001,1.39549 1.468821,3.17665 3.059652,4.06963 -0.338111,-2.76779 -0.147672,-5.47572 0.467008,-7.72353 0.61469,-2.24782 2.44942,-5.89506 4.61577,-5.89016 2.166371,0.005 4.00105,3.64903 4.61573,5.89685 0.614662,2.24781 0.805119,4.95574 0.467,7.72353 1.590839,-0.89298 2.919669,-2.6742 3.05966,-4.06969 0.321501,-3.20525 -0.45907,-5.70121 -1.823489,-8.33685 -1.338422,-2.58545 -3.910381,-5.19672 -6.268731,-5.25093 -0.0369,-8.2e-4 -0.0738,-9.8e-4 -0.11071,-5.3e-4 z m 0.113911,7.69891 a 2.1388648,2.1388648 0 0 0 -1.02798,0.25165 2.1388648,2.1388648 0 0 0 -0.88029,2.8939 2.1388648,2.1388648 0 0 0 2.893891,0.88029 2.1388648,2.1388648 0 0 0 0.880298,-2.8939 2.1388648,2.1388648 0 0 0 -1.865919,-1.13194 z"
     id="path1091" />
  <g
     aria-label="Verge3D Network"
     id="text13242"
     style="font-size:10.5833px;line-height:1.25;font-family:'Days One';-inkscape-font-specification:'Days One';letter-spacing:0px;word-spacing:0px;display:inline;fill:url(#linearGradient3367);stroke-width:0.264583"
     transform="translate(27.443456,38.225624)">
    <path
       d="m 45.002548,-21.2344 q -0.03101,-0.06201 -0.03101,-0.134358 0,-0.07751 0.09302,-0.186034 0.09819,-0.113688 0.273885,-0.113688 h 1.13171 q 0.403075,0 0.614947,0.490924 l 1.999872,4.454495 1.999871,-4.454495 q 0.211873,-0.485757 0.614948,-0.490924 h 1.13171 q 0.180867,0 0.273885,0.113688 0.09302,0.10852 0.09302,0.186034 0,0.07235 -0.02584,0.134358 l -2.976553,6.449199 q -0.242879,0.527098 -0.738971,0.527098 h -0.744138 q -0.496092,0 -0.738971,-0.527098 z"
       id="path4356"
       style="fill:url(#linearGradient4483)" />
    <path
       d="m 54.056229,-14.909224 q -0.795814,-0.754474 -0.795814,-2.170404 0,-1.421097 0.800982,-2.180738 0.800982,-0.764809 2.222079,-0.764809 1.421098,0 2.216912,0.744138 0.795815,0.738971 0.795815,2.123895 v 0.294555 q 0,0.139526 -0.09302,0.232543 -0.08785,0.08785 -0.227376,0.08785 h -3.891223 q 0.05168,0.635618 0.361734,0.925005 0.315225,0.289387 1.002519,0.289387 0.687295,0 0.940509,-0.310058 0.253213,-0.310057 0.625282,-0.315225 h 0.769977 q 0.139526,0 0.227375,0.09302 0.09302,0.08785 0.09302,0.227376 0,1.483109 -2.826692,1.477941 -1.426265,0 -2.22208,-0.754473 z m 1.018023,-2.72334 h 2.402946 q -0.05168,-1.21956 -1.198889,-1.21956 -1.142046,0 -1.204057,1.21956 z"
       id="path4358"
       style="fill:url(#linearGradient4485)" />
    <path
       d="m 64.164107,-18.609245 -0.795814,-0.03101 q -0.69763,0 -1.333248,0.764809 v 3.302113 q 0,0.139526 -0.09302,0.227376 -0.08785,0.08785 -0.222208,0.08785 h -1.157548 q -0.139526,0 -0.227376,-0.08785 -0.08785,-0.08785 -0.08785,-0.227376 v -5.0281 q 0,-0.139526 0.08785,-0.227376 0.09302,-0.09302 0.227376,-0.09302 h 1.157548 q 0.139526,0 0.227376,0.09302 0.08785,0.08785 0.08785,0.227376 v 0.32556 q 0.527098,-0.382404 1.012855,-0.563271 0.490925,-0.186035 1.281572,-0.186035 0.139525,0 0.227375,0.09302 0.09302,0.08785 0.09302,0.222208 v 0.78548 q 0,0.139526 -0.09302,0.227375 -0.08785,0.08785 -0.227375,0.08785 z"
       id="path4360"
       style="fill:url(#linearGradient4487)" />
    <path
       d="m 67.68326,-14.692184 q -1.173051,0 -1.896519,-0.707965 -0.7183,-0.707965 -0.7183,-1.963698 0,-1.255733 0.821653,-1.958531 0.821652,-0.702797 2.356437,-0.702797 0.749306,0 1.555456,0.170532 0.80615,0.165364 1.214392,0.408242 v 4.785223 q 0,1.152381 -0.759641,1.700149 -0.759641,0.552936 -2.13423,0.552936 -1.369421,0 -2.113559,-0.346231 -0.738971,-0.341063 -0.738971,-1.13171 0,-0.139526 0.08785,-0.232543 0.09302,-0.08785 0.232543,-0.08785 h 0.769977 q 0.372069,0 0.594277,0.273884 0.284219,0.351399 1.007687,0.351399 0.728635,0 0.997352,-0.237711 0.268717,-0.237711 0.268717,-0.842323 v -0.242879 q -0.826821,0.211873 -1.545121,0.211873 z m 0.454751,-4.082425 q -1.224727,-0.0052 -1.224727,1.41593 0,1.415929 1.193722,1.415929 0.496092,0 1.121375,-0.155029 v -2.563142 q -0.444416,-0.118856 -1.09037,-0.113688 z"
       id="path4362"
       style="fill:url(#linearGradient4489)" />
    <path
       d="m 72.763038,-14.909224 q -0.795814,-0.754474 -0.795814,-2.170404 0,-1.421097 0.800982,-2.180738 0.800982,-0.764809 2.222079,-0.764809 1.421098,0 2.216912,0.744138 0.795815,0.738971 0.795815,2.123895 v 0.294555 q 0,0.139526 -0.09302,0.232543 -0.08785,0.08785 -0.227376,0.08785 h -3.891223 q 0.05168,0.635618 0.361734,0.925005 0.315225,0.289387 1.002519,0.289387 0.687295,0 0.940509,-0.310058 0.253213,-0.310057 0.625282,-0.315225 h 0.769977 q 0.139526,0 0.227375,0.09302 0.09302,0.08785 0.09302,0.227376 0,1.483109 -2.826692,1.477941 -1.426265,0 -2.22208,-0.754473 z m 1.018023,-2.72334 h 2.402946 q -0.05168,-1.21956 -1.198889,-1.21956 -1.142046,0 -1.204057,1.21956 z"
       id="path4364"
       style="fill:url(#linearGradient4491)" />
    <path
       d="m 78.581786,-16.278645 q 0,-0.310058 0.180867,-0.439249 0.180867,-0.134358 0.351399,-0.134358 h 0.60978 q 0.480589,0 0.754473,0.589109 0.273885,0.58911 1.260901,0.58911 h 0.738971 q 0.635618,0 0.930173,-0.180867 0.294554,-0.180867 0.294554,-0.614948 0,-0.43408 -0.294554,-0.614947 -0.294555,-0.180867 -0.930173,-0.180867 h -0.930173 q -0.201537,0 -0.346231,-0.139526 -0.144694,-0.144694 -0.144694,-0.346231 v -0.423745 q 0,-0.191203 0.139526,-0.335896 0.139526,-0.149861 0.330729,-0.149861 h 0.759641 q 0.687294,0 0.997352,-0.180867 0.315225,-0.180867 0.315225,-0.614948 0,-0.434081 -0.315225,-0.60978 -0.310058,-0.180867 -0.997352,-0.180867 H 81.90457 q -0.992184,0 -1.312577,0.635618 -0.232543,0.485757 -0.69763,0.485757 h -0.614947 q -0.248046,0 -0.387572,-0.180867 -0.139526,-0.180867 -0.139526,-0.392739 0,-0.58911 0.449583,-1.059364 0.449584,-0.475422 1.121375,-0.713132 0.671792,-0.237711 1.400427,-0.237711 h 0.713133 q 3.110911,0 3.110911,2.26342 0,0.945676 -0.707965,1.483109 0.811318,0.511595 0.811318,1.493444 0,1.193722 -0.764809,1.725988 -0.759641,0.527098 -2.227247,0.527098 h -1.100705 q -1.157548,0 -2.06705,-0.568439 -0.909503,-0.573607 -0.909503,-1.493444 z"
       id="path4366"
       style="fill:url(#linearGradient4493)" />
    <path
       d="m 86.710463,-14.733525 v -6.433695 q 0,-0.211873 0.144694,-0.356567 0.144693,-0.144693 0.346231,-0.144693 h 2.888703 q 2.24275,0 3.260773,0.899167 1.02319,0.893999 1.02319,2.811189 0,1.912022 -1.02319,2.806021 -1.018023,0.894 -3.260773,0.894 h -2.888703 q -0.201538,0 -0.346231,-0.134359 -0.144694,-0.139526 -0.144694,-0.341063 z m 1.948196,-0.987017 h 1.374588 q 1.390092,0 1.891352,-0.506427 0.50126,-0.506428 0.50126,-1.731155 0,-1.229895 -0.50126,-1.736323 -0.50126,-0.511595 -1.891352,-0.511595 h -1.374588 z"
       id="path4368"
       style="fill:url(#linearGradient4495)" />
    <path
       d="m 99.138606,-14.74386 v -6.433696 q 0,-0.201537 0.139526,-0.346231 0.139526,-0.144693 0.341063,-0.144693 h 1.519285 q 0.18086,0 0.3824,0.144693 0.20154,0.144694 0.33073,0.346231 l 3.12125,4.800726 v -4.811061 q 0,-0.201537 0.13952,-0.341063 0.1447,-0.139526 0.34623,-0.139526 h 0.88884 q 0.20153,0 0.34106,0.139526 0.14469,0.139526 0.14469,0.351398 v 6.433696 q 0,0.201537 -0.14469,0.346231 -0.13953,0.139526 -0.34106,0.139526 h -1.71566 q -0.20153,0 -0.41341,-0.139526 -0.21187,-0.144694 -0.33589,-0.346231 l -2.8577,-4.433824 v 4.433824 q 0,0.201537 -0.14469,0.346231 -0.13953,0.139526 -0.34107,0.139526 h -0.9095 q -0.201537,0 -0.346231,-0.139526 -0.144693,-0.144694 -0.144693,-0.346231 z"
       id="path4370"
       style="fill:url(#linearGradient4497)" />
    <path
       d="m 108.68838,-14.909224 q -0.79582,-0.754474 -0.79582,-2.170404 0,-1.421097 0.80099,-2.180738 0.80098,-0.764809 2.22208,-0.764809 1.42109,0 2.21691,0.744138 0.79581,0.738971 0.79581,2.123895 v 0.294555 q 0,0.139526 -0.093,0.232543 -0.0879,0.08785 -0.22738,0.08785 h -3.89122 q 0.0517,0.635618 0.36173,0.925005 0.31523,0.289387 1.00252,0.289387 0.68729,0 0.94051,-0.310058 0.25321,-0.310057 0.62528,-0.315225 h 0.76998 q 0.13952,0 0.22737,0.09302 0.093,0.08785 0.093,0.227376 0,1.483109 -2.82669,1.477941 -1.42627,0 -2.22208,-0.754473 z m 1.01802,-2.72334 h 2.40295 q -0.0517,-1.21956 -1.19889,-1.21956 -1.14205,0 -1.20406,1.21956 z"
       id="path4372"
       style="fill:url(#linearGradient4499)" />
    <path
       d="m 117.5767,-15.379478 0.70796,-0.06201 h 0.1912 q 0.13953,0 0.22738,0.08785 0.093,0.08785 0.093,0.227375 v 0.552936 q 0,0.113688 -0.093,0.206705 -0.0878,0.08785 -0.22738,0.108521 -0.5271,0.103352 -1.37459,0.103352 -2.22208,0 -2.22208,-2.325432 v -4.867904 q 0,-0.139526 0.0879,-0.227376 0.093,-0.09302 0.22738,-0.09302 h 1.15755 q 0.13436,0 0.22221,0.09302 0.093,0.08785 0.093,0.227376 v 1.725987 h 1.44177 q 0.13436,0 0.22221,0.08785 0.093,0.08785 0.093,0.227375 v 0.614948 q 0,0.139526 -0.093,0.227375 -0.0879,0.08785 -0.22221,0.08785 h -1.44177 v 1.896519 q 0,0.527098 0.24805,0.816485 0.24805,0.28422 0.66146,0.28422 z"
       id="path4374"
       style="fill:url(#linearGradient4501)" />
    <path
       d="m 119.05464,-19.467071 q -0.0413,-0.134358 -0.0465,-0.222208 0,-0.227376 0.25838,-0.232543 h 0.96118 q 0.24288,0 0.43408,0.124023 0.1912,0.118855 0.26355,0.330728 l 0.84749,2.785351 0.83716,-2.785351 q 0.13952,-0.454751 0.58911,-0.454751 h 0.91467 q 0.45475,0 0.5891,0.454751 l 0.83716,2.785351 0.84749,-2.785351 q 0.0724,-0.211873 0.26355,-0.330728 0.1912,-0.124023 0.43408,-0.124023 h 0.96118 q 0.25321,0 0.25838,0.232543 0,0.09302 -0.0465,0.222208 l -1.56579,4.754216 q -0.0724,0.211873 -0.25838,0.335896 -0.18603,0.118856 -0.39791,0.118856 h -0.72863 q -0.21188,0 -0.40308,-0.124023 -0.1912,-0.129191 -0.25321,-0.330729 l -0.99219,-3.079905 -0.99735,3.079905 q -0.062,0.201538 -0.25321,0.330729 -0.1912,0.124023 -0.40308,0.124023 h -0.72863 q -0.21187,0 -0.39791,-0.118856 -0.18603,-0.124023 -0.25838,-0.335896 z"
       id="path4376"
       style="fill:url(#linearGradient4503)" />
    <path
       d="m 129.47774,-14.898889 q -0.80615,-0.744138 -0.80615,-2.191074 0,-1.452103 0.80615,-2.191074 0.80615,-0.744138 2.31509,-0.744138 1.51412,0 2.32027,0.744138 0.80615,0.738971 0.80615,2.191074 0,1.446936 -0.80615,2.191074 -0.80615,0.744138 -2.32027,0.744138 -1.50894,0 -2.31509,-0.744138 z m 1.30741,-3.534657 q -0.3204,0.418578 -0.3204,1.338416 0,0.919837 0.3204,1.343582 0.32039,0.423746 1.00768,0.423746 0.69247,0 1.01286,-0.423746 0.32556,-0.423745 0.32556,-1.343582 0,-0.919838 -0.32556,-1.338416 -0.32039,-0.418578 -1.01286,-0.418578 -0.68729,0 -1.00768,0.418578 z"
       id="path4378"
       style="fill:url(#linearGradient4505)" />
    <path
       d="m 139.78716,-18.609245 -0.79581,-0.03101 q -0.69763,0 -1.33325,0.764809 v 3.302113 q 0,0.139526 -0.093,0.227376 -0.0879,0.08785 -0.22221,0.08785 h -1.15754 q -0.13953,0 -0.22738,-0.08785 -0.0879,-0.08785 -0.0879,-0.227376 v -5.0281 q 0,-0.139526 0.0879,-0.227376 0.093,-0.09302 0.22738,-0.09302 h 1.15754 q 0.13953,0 0.22738,0.09302 0.0879,0.08785 0.0879,0.227376 v 0.32556 q 0.5271,-0.382404 1.01285,-0.563271 0.49093,-0.186035 1.28158,-0.186035 0.13952,0 0.22737,0.09302 0.093,0.08785 0.093,0.222208 v 0.78548 q 0,0.139526 -0.093,0.227375 -0.0879,0.08785 -0.22737,0.08785 z"
       id="path4380"
       style="fill:url(#linearGradient4507)" />
    <path
       d="m 146.72211,-14.485479 q 0,0.227376 -0.26871,0.227376 h -0.97669 q -0.49609,0 -0.79064,-0.485757 l -0.65629,-1.069699 q -0.42375,-0.687294 -1.2299,-0.687294 v 1.927524 q 0,0.139526 -0.093,0.227376 -0.0879,0.08785 -0.22221,0.08785 h -1.15755 q -0.13953,0 -0.22738,-0.08785 -0.0879,-0.08785 -0.0879,-0.227376 v -6.774758 q 0,-0.139526 0.0879,-0.227376 0.093,-0.09302 0.22738,-0.09302 h 1.15755 q 0.13952,0 0.22737,0.09302 0.0879,0.08785 0.0879,0.227376 v 3.669015 q 0.89917,0 1.2299,-0.69763 l 0.49609,-1.054196 q 0.10335,-0.222208 0.30489,-0.356566 0.20154,-0.134358 0.43408,-0.134358 h 0.97668 q 0.25838,0 0.25838,0.201537 0,0.113688 -0.0827,0.289387 l -0.66662,1.405595 q -0.17053,0.351398 -0.46509,0.604612 -0.29455,0.253214 -0.63562,0.325561 0.63562,0.191202 1.10071,0.930172 l 0.87849,1.421098 q 0.0879,0.149861 0.093,0.258381 z"
       id="path4382"
       style="fill:url(#linearGradient4509)" />
  </g>
</svg>
