<?xml version="1.0" encoding="UTF-8" standalone="no"?>
<svg
   width="814.2812224502982mm"
   height="815.9662984794176mm"
   viewBox="0 0 814.2812224502982 815.9662984794176"
   version="1.1"
   id="svg461"
   sodipodi:docname="logo.svg"
   inkscape:version="1.2.2 (b0a8486, 2022-12-01)"
   xmlns:inkscape="http://www.inkscape.org/namespaces/inkscape"
   xmlns:sodipodi="http://sodipodi.sourceforge.net/DTD/sodipodi-0.dtd"
   xmlns="http://www.w3.org/2000/svg"
   xmlns:svg="http://www.w3.org/2000/svg">
  <defs
     id="defs465" />
  <sodipodi:namedview
     id="namedview463"
     pagecolor="#ffffff"
     bordercolor="#000000"
     borderopacity="0.25"
     inkscape:showpageshadow="2"
     inkscape:pageopacity="0.0"
     inkscape:pagecheckerboard="0"
     inkscape:deskcolor="#d1d1d1"
     inkscape:document-units="mm"
     showgrid="false"
     inkscape:zoom="0.20367481"
     inkscape:cx="1215.1724"
     inkscape:cy="844.48344"
     inkscape:window-width="1440"
     inkscape:window-height="826"
     inkscape:window-x="0"
     inkscape:window-y="0"
     inkscape:window-maximized="0"
     inkscape:current-layer="svg461" />
  <g
     id="Body"
     transform="translate(407.212485,407.983149) scale(1,-1)"
     style="fill:#000000;stroke:none">
    <path
       id="Body_f0000"
       d="M -60.00000000000002 90.0 L -60.00000000000002 334.6640106136302 L -60.00000000000002 334.6640106136302 L -60.00000000000002 90.0 L -60.00000000000002 90.0 Z "
       stroke="#191919"
       stroke-width="0.35 px"
       style="stroke-width:0.35;stroke-miterlimit:4;stroke-dasharray:none;stroke-linecap:square;fill:#000000;fill-opacity:1;fill-rule:evenodd;stroke:none" />
    <path
       id="Body_f0001"
       d="M 2.1316282072803006e-14 90.0 L -60.00000000000002 90.0 L -60.00000000000002 90.0 L 2.290460896668314e-14 90.0 L 2.290460896668314e-14 90.0 Z "
       stroke="#191919"
       stroke-width="0.35 px"
       style="stroke-width:0.35;stroke-miterlimit:4;stroke-dasharray:none;stroke-linecap:square;fill:#000000;fill-opacity:1;fill-rule:evenodd;stroke:none" />
    <path
       id="Body_f0002"
       d="M 2.4492935857718128e-14 400.0 L 2.4492935857718128e-14 90.0 L 2.290460896668314e-14 90.0 L 2.4492935857718128e-14 400.0 L 2.4492935857718128e-14 400.0 Z "
       stroke="#191919"
       stroke-width="0.35 px"
       style="stroke-width:0.35;stroke-miterlimit:4;stroke-dasharray:none;stroke-linecap:square;fill:#000000;fill-opacity:1;fill-rule:evenodd;stroke:none" />
    <path
       id="Body_f0003"
       d="M -398.8734135035826 -30.00000000000016 A 400 400 0 0 0 -7.34788e-14 400L 2.4492935857718128e-14 400.0 A 400 400 0 0 1 -398.873 -30L -398.8734135035826 -30.00000000000006 Z "
       stroke="#191919"
       stroke-width="0.35 px"
       style="stroke-width:0.35;stroke-miterlimit:4;stroke-dasharray:none;stroke-linecap:square;fill:#000000;fill-opacity:1;fill-rule:evenodd;stroke:none" />
    <path
       id="Body_f0004"
       d="M -59.99999999999994 -30.00000000000006 L -398.8734135035826 -30.00000000000006 L -398.8734135035826 -30.00000000000006 L -59.99999999999995 -30.00000000000006 L -59.99999999999995 -30.00000000000006 Z "
       stroke="#191919"
       stroke-width="0.35 px"
       style="stroke-width:0.35;stroke-miterlimit:4;stroke-dasharray:none;stroke-linecap:square;fill:#000000;fill-opacity:1;fill-rule:evenodd;stroke:none" />
    <path
       id="Body_f0005"
       d="M -59.99999999999996 -334.66401061363024 L -59.99999999999996 -30.00000000000006 L -59.99999999999995 -30.00000000000006 L -59.99999999999996 -334.66401061363024 L -59.99999999999996 -334.66401061363024 Z "
       stroke="#191919"
       stroke-width="0.35 px"
       style="stroke-width:0.35;stroke-miterlimit:4;stroke-dasharray:none;stroke-linecap:square;fill:#000000;fill-opacity:1;fill-rule:evenodd;stroke:none" />
    <path
       id="Body_f0006"
       d="M -327.8719262151 -90.00000000000001 L -327.8719262151 -90.00000000000001 A 340 340 0 0 1 -60 -334.664L -59.99999999999996 -334.66401061363024 A 340 340 0 0 0 -327.872 -90Z "
       stroke="#191919"
       stroke-width="0.35 px"
       style="stroke-width:0.35;stroke-miterlimit:4;stroke-dasharray:none;stroke-linecap:square;fill:#000000;fill-opacity:1;fill-rule:evenodd;stroke:none" />
    <path
       id="Body_f0007"
       d="M -389.74350539810155 -90.0 L -389.74350539810155 -90.0 L -327.8719262151 -90.00000000000001 L -327.8719262151 -90.00000000000001 L -389.74350539810155 -90.00000000000001 Z "
       stroke="#191919"
       stroke-width="0.35 px"
       style="stroke-width:0.35;stroke-miterlimit:4;stroke-dasharray:none;stroke-linecap:square;fill:#000000;fill-opacity:1;fill-rule:evenodd;stroke:none" />
    <path
       id="Body_f0008"
       d="M 2.4492935857718128e-14 -400.0 A 400 400 0 0 0 -389.744 -90L -389.74350539810155 -90.0 A 400 400 0 0 1 -7.34788e-14 -400L -6.516111347271183e-14 -400.0 Z "
       stroke="#191919"
       stroke-width="0.35 px"
       style="stroke-width:0.35;stroke-miterlimit:4;stroke-dasharray:none;stroke-linecap:square;fill:#000000;fill-opacity:1;fill-rule:evenodd;stroke:none" />
    <path
       id="Body_f0009"
       d="M -5.684341886080802e-14 30.000000000000057 L -5.684341886080802e-14 -400.0 L -6.516111347271183e-14 -400.0 L -5.684341886080802e-14 30.000000000000053 L -5.684341886080802e-14 30.000000000000053 Z "
       stroke="#191919"
       stroke-width="0.35 px"
       style="stroke-width:0.35;stroke-miterlimit:4;stroke-dasharray:none;stroke-linecap:square;fill:#000000;fill-opacity:1;fill-rule:evenodd;stroke:none" />
    <path
       id="Body_f0010"
       d="M -338.67388443752196 30.00000000000005 L -338.67388443752196 30.00000000000005 L -5.684341886080802e-14 30.000000000000053 L -5.684341886080802e-14 30.000000000000053 L -338.67388443752196 30.00000000000005 Z "
       stroke="#191919"
       stroke-width="0.35 px"
       style="stroke-width:0.35;stroke-miterlimit:4;stroke-dasharray:none;stroke-linecap:square;fill:#000000;fill-opacity:1;fill-rule:evenodd;stroke:none" />
    <path
       id="Body_f0011"
       d="M -60.00000000000002 334.6640106136302 L -60.00000000000002 334.6640106136302 A 340 340 0 0 1 -338.674 30L -338.67388443752196 30.00000000000005 A 340 340 0 0 0 -60 334.664Z "
       stroke="#191919"
       stroke-width="0.35 px"
       style="stroke-width:0.35;stroke-miterlimit:4;stroke-dasharray:none;stroke-linecap:square;fill:#000000;fill-opacity:1;fill-rule:evenodd;stroke:none" />
    <path
       id="Body_f0012"
       d="M -60.00000000000002 334.6640106136302 A 340 340 0 0 1 -338.674 30L -5.684341886080802e-14 30.000000000000053 L -5.684341886080802e-14 -400.0 A 400 400 0 0 0 -389.744 -90L -327.8719262151 -90.00000000000001 A 340 340 0 0 1 -60 -334.664L -59.99999999999996 -30.00000000000006 L -398.8734135035826 -30.00000000000006 A 400 400 0 0 0 -7.34788e-14 400L 2.4492935857718128e-14 90.0 L -60.00000000000002 90.0 L -60.00000000000002 334.6640106136302 Z "
       stroke="#191919"
       stroke-width="0.35 px"
       style="stroke-width:0.35;stroke-miterlimit:4;stroke-dasharray:none;stroke-linecap:square;fill:#000000;fill-opacity:1;fill-rule:evenodd;stroke:none" />
    <path
       id="Body_f0013"
       d="M -60.00000000000002 334.6640106136302 L -60.00000000000002 90.0 L 2.290460896668314e-14 90.0 L 2.4492935857718128e-14 400.0 A 400 400 0 0 1 -398.873 -30L -59.99999999999995 -30.00000000000006 L -59.99999999999996 -334.66401061363024 A 340 340 0 0 0 -327.872 -90L -389.74350539810155 -90.00000000000001 A 400 400 0 0 1 -7.34788e-14 -400L -5.684341886080802e-14 30.000000000000053 L -338.67388443752196 30.00000000000005 A 340 340 0 0 0 -60 334.664Z "
       stroke="#191919"
       stroke-width="0.35 px"
       style="stroke-width:0.35;stroke-miterlimit:4;stroke-dasharray:none;stroke-linecap:square;fill:#000000;fill-opacity:1;fill-rule:evenodd;stroke:none" />
    <title
       id="title450">b'S'</title>
  </g>
  <g
     id="Body001"
     transform="translate(407.212485,407.983149) scale(1,-1)"
     style="stroke:none;fill:#000000;fill-opacity:1">
    <path
       id="Body001_f0000"
       d="M 59.99999999999971 395.4743986657038 A 400 400 0 0 0 60 -395.474L 60.00000000000006 -395.47439866570375 A 400 400 0 0 1 60 395.474L 59.999999999999986 395.4743986657038 Z "
       stroke="#191919"
       stroke-width="0.35 px"
       style="stroke-width:0.35;stroke-miterlimit:4;stroke-dasharray:none;stroke-linecap:square;fill:#000000;fill-opacity:1;fill-rule:evenodd;stroke:none" />
    <path
       id="Body001_f0001"
       d="M 60.00000000000006 -395.4743986657038 L 60.00000000000006 395.4743986657038 L 59.999999999999986 395.4743986657038 L 60.00000000000006 -395.47439866570375 L 60.00000000000006 -395.47439866570375 Z "
       stroke="#191919"
       stroke-width="0.35 px"
       style="stroke-width:0.35;stroke-miterlimit:4;stroke-dasharray:none;stroke-linecap:square;fill:#000000;fill-opacity:1;fill-rule:evenodd;stroke:none" />
    <path
       id="Body001_f0002"
       d="M 120.00000000000016 -318.1194744117373 L 120.00000000000016 -318.1194744117373 A 340 340 0 0 1 120 318.119L 120.00000000000009 318.1194744117373 A 340 340 0 0 0 120 -318.119Z "
       stroke="#191919"
       stroke-width="0.35 px"
       style="stroke-width:0.35;stroke-miterlimit:4;stroke-dasharray:none;stroke-linecap:square;fill:#000000;fill-opacity:1;fill-rule:evenodd;stroke:none" />
    <path
       id="Body001_f0003"
       d="M 120.00000000000009 318.1194744117373 L 120.00000000000009 318.1194744117373 L 120.00000000000016 -318.1194744117373 L 120.00000000000016 -318.1194744117373 L 120.00000000000011 318.1194744117373 Z "
       stroke="#191919"
       stroke-width="0.35 px"
       style="stroke-width:0.35;stroke-miterlimit:4;stroke-dasharray:none;stroke-linecap:square;fill:#000000;fill-opacity:1;fill-rule:evenodd;stroke:none" />
    <path
       id="Body001_f0004"
       d="M 59.999999999999986 395.4743986657038 L 60.00000000000006 -395.47439866570375 A 400 400 0 0 1 60 395.474Z M 120.00000000000016 -318.1194744117373 L 120.00000000000009 318.1194744117373 A 340 340 0 0 0 120 -318.119Z "
       stroke="#191919"
       stroke-width="0.35 px"
       style="stroke-width:0.35;stroke-miterlimit:4;stroke-dasharray:none;stroke-linecap:square;fill:#000000;fill-opacity:1;fill-rule:evenodd;stroke:none" />
    <title
       id="title458">b'D'</title>
  </g>
</svg>
