<?xml version="1.0" encoding="UTF-8" standalone="no"?>
<svg
   width="16"
   height="16"
   viewBox="0 0 4.2333332 4.2333334"
   version="1.1"
   id="svg4029"
   sodipodi:docname="puzzles_object_icon_search.svg"
   inkscape:version="1.2.2 (b0a8486541, 2022-12-01)"
   xmlns:inkscape="http://www.inkscape.org/namespaces/inkscape"
   xmlns:sodipodi="http://sodipodi.sourceforge.net/DTD/sodipodi-0.dtd"
   xmlns:xlink="http://www.w3.org/1999/xlink"
   xmlns="http://www.w3.org/2000/svg"
   xmlns:svg="http://www.w3.org/2000/svg"
   xmlns:rdf="http://www.w3.org/1999/02/22-rdf-syntax-ns#"
   xmlns:cc="http://creativecommons.org/ns#"
   xmlns:dc="http://purl.org/dc/elements/1.1/">
  <sodipodi:namedview
     id="namedview48546"
     pagecolor="#505050"
     bordercolor="#eeeeee"
     borderopacity="1"
     inkscape:showpageshadow="0"
     inkscape:pageopacity="0"
     inkscape:pagecheckerboard="0"
     inkscape:deskcolor="#505050"
     showgrid="false"
     inkscape:zoom="23.6"
     inkscape:cx="5.3177966"
     inkscape:cy="8.9830509"
     inkscape:window-width="1920"
     inkscape:window-height="1137"
     inkscape:window-x="-8"
     inkscape:window-y="-8"
     inkscape:window-maximized="1"
     inkscape:current-layer="svg4029" />
  <defs
     id="defs4023">
    <linearGradient
       xlink:href="#linearGradient2768"
       id="linearGradient1672"
       gradientUnits="userSpaceOnUse"
       gradientTransform="matrix(0.71428604,0,0,0.71428575,-237.07953,-70.7189)"
       x1="333.53189"
       y1="105.25716"
       x2="339.22046"
       y2="99.237892" />
    <linearGradient
       id="linearGradient2768">
      <stop
         style="stop-color:#414141;stop-opacity:1"
         offset="0"
         id="stop2764" />
      <stop
         style="stop-color:#767676;stop-opacity:1"
         offset="1"
         id="stop2766" />
    </linearGradient>
  </defs>
  <metadata
     id="metadata4026">
    <rdf:RDF>
      <cc:Work
         rdf:about="">
        <dc:format>image/svg+xml</dc:format>
        <dc:type
           rdf:resource="http://purl.org/dc/dcmitype/StillImage" />
      </cc:Work>
    </rdf:RDF>
  </metadata>
  <path
     id="path10842"
     d="M 1.7207957,1.3e-7 C 0.76948186,3.4699e-4 7.5207088e-8,0.77687182 7.5207088e-8,1.7182479 7.5207088e-8,2.6680978 0.76981976,3.4358646 1.7214277,3.4358646 c 0.3971961,0 0.7612362,-0.1314372 1.0591455,-0.3626989 V 3.213199 c 0,0.049509 0.016684,0.099406 0.058139,0.1406642 l 0.8183733,0.8174922 c 0.082716,0.082637 0.2073746,0.082637 0.2818488,0 L 4.1708597,3.9404895 c 0.082423,-0.074337 0.081793,-0.1986911 0.00695,-0.2813281 L 3.3512226,2.8334688 C 3.3098031,2.8005117 3.2599477,2.7754361 3.2102981,2.7754361 H 3.077589 C 3.301012,2.4863538 3.4422233,2.1229619 3.4422233,1.7182479 3.4422233,0.77687342 2.664482,3.4947e-4 1.7214277,1.3e-7 Z m 0,0.66105862 c 0.5792365,0 1.0591456,0.47902275 1.0591456,1.05718915 0,0.5864299 -0.4799091,1.0571889 -1.0591456,1.0571889 -0.5875031,3e-7 -1.05914566,-0.470759 -1.05914566,-1.0571889 9e-8,-0.5781664 0.47164256,-1.05718915 1.05914566,-1.05718915 z"
     style="font-style:normal;font-variant:normal;font-weight:normal;font-stretch:normal;font-size:7.64731px;line-height:1.25;font-family:'Font Awesome 5 Free';-inkscape-font-specification:'Font Awesome 5 Free';letter-spacing:0px;word-spacing:0px;display:inline;fill:#5e5e5e;fill-opacity:1;stroke:none;stroke-width:0.166843" />
</svg>
