<?xml version="1.0" encoding="UTF-8" standalone="no"?>
<!-- Created with Inkscape (http://www.inkscape.org/) -->

<svg
   width="16"
   height="16"
   viewBox="0 0 4.2333334 4.2333334"
   version="1.1"
   id="svg38348"
   inkscape:version="1.2.2 (b0a8486541, 2022-12-01)"
   sodipodi:docname="puzzles_object_icon_light_source.svg"
   xmlns:inkscape="http://www.inkscape.org/namespaces/inkscape"
   xmlns:sodipodi="http://sodipodi.sourceforge.net/DTD/sodipodi-0.dtd"
   xmlns="http://www.w3.org/2000/svg"
   xmlns:svg="http://www.w3.org/2000/svg">
  <sodipodi:namedview
     id="namedview38350"
     pagecolor="#505050"
     bordercolor="#eeeeee"
     borderopacity="1"
     inkscape:showpageshadow="0"
     inkscape:pageopacity="0"
     inkscape:pagecheckerboard="0"
     inkscape:deskcolor="#505050"
     inkscape:document-units="px"
     showgrid="false"
     inkscape:zoom="45.254834"
     inkscape:cx="6.75066"
     inkscape:cy="7.8223688"
     inkscape:window-width="1920"
     inkscape:window-height="1177"
     inkscape:window-x="1912"
     inkscape:window-y="-8"
     inkscape:window-maximized="1"
     inkscape:current-layer="layer1" />
  <defs
     id="defs38345" />
  <g
     inkscape:label="Layer 1"
     inkscape:groupmode="layer"
     id="layer1">
    <path
       id="path9049"
       style="color:#000000;fill:#4fb1b6;stroke-width:0.985449;stroke-dasharray:none"
       d="m 2.1176873,-3.28e-6 c -0.8455624,0 -1.5377276,0.69012146 -1.53772761,1.53569088 0,0.3244838 0.10248271,0.6291487 0.27546709,0.8773194 0.0384886,0.05536 0.0777981,0.1089363 0.11507498,0.1598829 C 1.1097736,2.7635187 1.222329,2.960322 1.2306934,2.9863451 c 0.04013,0.142819 0.048127,0.246263 0.045826,0.4022533 v 0.00204 0.00204 c 0,0.46121 0.3799633,0.8406583 0.8411676,0.8406583 0.4612042,0 0.8411674,-0.3794474 0.8411674,-0.8406583 0,-0.1207735 -0.0034,-0.202919 0.00967,-0.3523534 -0.00191,0.021836 0.031532,-0.085063 0.094199,-0.1827961 0.062381,-0.097289 0.1415781,-0.2003331 0.2021449,-0.2846324 v -0.00204 C 3.3024783,2.5195545 3.3416243,2.4681159 3.3799433,2.4130104 3.552499,2.1646215 3.6533736,1.8616873 3.6533737,1.5372186 3.6533737,0.69107153 2.9632554,1.2e-7 2.1176829,1.2e-7 Z m 0,0.52140166 c 0.5637755,0 1.0142891,0.45117957 1.0142891,1.01581682 0,0.2163555 -0.066242,0.4125671 -0.1807593,0.5774115 -0.033966,0.048847 -0.070381,0.098969 -0.1079465,0.1502085 v 0.00204 h -0.00204 c -0.053433,0.074411 -0.1393517,0.1878283 -0.2174205,0.3095823 -0.037527,0.058526 -0.075581,0.115631 -0.106928,0.1792318 H 1.7016861 C 1.6327653,2.5860187 1.5169455,2.4385002 1.3900671,2.2648352 1.3523137,2.2132371 1.3163586,2.1631815 1.2826299,2.1146267 1.1685859,1.9510143 1.1013614,1.7520299 1.1013614,1.5356876 c 0,-0.56376444 0.4525655,-1.01428923 1.0163259,-1.01428922 z M 1.7974122,3.2770877 h 0.6395317 c -2.85e-5,0.039738 0,0.078088 0,0.1155841 0,0.1796597 -0.1395983,0.3192567 -0.3192566,0.3192567 -0.1796583,0 -0.3192568,-0.1395961 -0.3192568,-0.3192567 5.275e-4,-0.038642 1.109e-4,-0.07717 -0.00102,-0.1155841 z" />
  </g>
</svg>
